# xmcd
#
# Track frame offsets: 
#        150
#        17199
#        40438
#        59043
#        77626
#        94443
#        110389
#        125766
#        139915
#        156739
#        179358
#        197153
#        211780
#        229728
#        249700
#        273570
#        290710
#        313629
#        326921
#        345062
#
# Disc length: 4774 seconds
#
# Revision: 0
# Processed by: cddbd v1.5.2PL0 Copyright (c) Steve Scherf et al.
# Submitted via: ExactAudioCopy v1.0b4
#
DISCID=3e12a414
DTITLE=Various Artist - Akella Presents - vol.57 - Country-Blues  CD2
DYEAR=2015
DGENRE=Blues
TTITLE0=John Illsley - Sometimes
TTITLE1=Dave Alvin - Harlan County Line
TTITLE2=Colin James - Dreams Come and Go
TTITLE3=Paul Thorn - Love Scar
TTITLE4=Ray Bonneville - Funny Bout Love
TTITLE5=Jorma Kaukonen - Ain't In No Hurry
TTITLE6=Bo Walton - Heartbreak Town
TTITLE7=Johnny Sansone - Hey LaLa
TTITLE8=Lance Canales and The Flood - Hoodoo man
TTITLE9=The Buddaheads - She'l Never Know
TTITLE10=Pops Staples - Word in Motion
TTITLE11=The Persuasions  - Travellin' Light
TTITLE12=Tim and Roddy Smith's Groove Gang  - Ride Me High
TTITLE13=Ray Wylie Hubbard - The Way of the Fallen
TTITLE14=Brendan Croker - I Guess That Says It All
TTITLE15=Ray Bonneville - Listen
TTITLE16=Dr. Wu' ...and Friends - Best Part Of My Life
TTITLE17=Great American Taxi - Easy Listening
TTITLE18=Damon Fowler - Where I Belong
TTITLE19=Malcolm Holcombe - One Man Singin'
EXTD=
EXTT0=
EXTT1=
EXTT2=
EXTT3=
EXTT4=
EXTT5=
EXTT6=
EXTT7=
EXTT8=
EXTT9=
EXTT10=
EXTT11=
EXTT12=
EXTT13=
EXTT14=
EXTT15=
EXTT16=
EXTT17=
EXTT18=
EXTT19=
PLAYORDER=
